<?xml version="1.0" encoding="UTF-8" standalone="no"?>
<!DOCTYPE svg PUBLIC "-//W3C//DTD SVG 1.1//EN" "http://www.w3.org/Graphics/SVG/1.1/DTD/svg11.dtd">
<!-- Created with Vectornator (http://vectornator.io/) -->
<svg height="266.0pt" stroke-miterlimit="10" style="fill-rule:nonzero;clip-rule:evenodd;stroke-linecap:round;stroke-linejoin:round;" version="1.1" viewBox="0 0 266 266" width="266.0pt" xml:space="preserve" xmlns="http://www.w3.org/2000/svg" xmlns:xlink="http://www.w3.org/1999/xlink">
<defs/>
<g id="无标题">
<g opacity="1">
<path d="M132.874 0C206.059 0 265.748 59.6888 265.748 132.872C265.748 206.057 206.059 265.746 132.874 265.746C59.6906 265.746 0 206.057 0 132.872C2.84217e-14 59.6888 59.6906 0 132.874 0L132.874 0ZM132.874 5.295C62.6063 5.295 5.295 62.6044 5.295 132.872C5.295 203.141 62.6063 260.451 132.874 260.451C203.143 260.451 260.454 203.141 260.454 132.872C260.454 62.6044 203.143 5.295 132.874 5.295L132.874 5.295Z" fill="#004ea2" fill-rule="nonzero" opacity="1" stroke="none"/>
<path d="M86.2031 189.502C77.8838 182.632 71.0925 173.966 66.4313 164.106C61.9444 154.614 59.4338 144.022 59.4338 132.872C59.4338 92.4262 92.4244 59.4356 132.874 59.4356C173.321 59.4356 206.312 92.4262 206.312 132.872C206.312 144.022 203.799 154.616 199.314 164.106C194.655 173.966 187.864 182.632 179.543 189.502L177.859 187.466C185.884 180.836 192.435 172.479 196.928 162.979C201.248 153.838 203.666 143.631 203.666 132.87C203.666 93.8812 171.866 62.0794 132.876 62.0794C93.8831 62.0794 62.0831 93.8812 62.0831 132.87C62.0831 143.629 64.5019 153.838 68.8219 162.979C73.3125 172.477 79.8638 180.834 87.8888 187.466L86.2031 189.502L86.2031 189.502Z" fill="#004ea2" fill-rule="nonzero" opacity="1" stroke="none"/>
<path d="M133.318 200.691L118.279 177.742C122.897 175.365 122.325 167.951 118.369 167.334C113.964 166.644 110.458 166.433 107.368 159.508L114.532 159.508L112.333 153.502C104.136 154.222 102.463 151.944 98.5763 145.541L108.816 145.191L106.746 139.965C95.5875 140.482 92.6437 137.747 89.8575 131.389L102.859 130.933L100.044 124.716C86.73 125.087 83.9119 124.71 79.0294 115.706L95.5687 115.626L93.2362 109.702C78.1613 110.353 74.3962 108.877 70.1288 101.338L104.014 100.481C108.953 100.356 114.591 103.721 116.668 108.201L120.743 116.992L125.031 102.195C127.241 94.5712 143.903 97.335 149.265 102.409L139.187 106.054L144.118 118.061C147.692 109.699 152.07 100.477 161.49 100.477L194.732 100.477C192.174 107.822 186 111.484 172.579 109.108L170.22 115.326L186.797 115.275C182.829 124.524 178.427 125.687 166.097 124.284L163.523 130.502L176.719 130.931C174.18 136.792 169.584 140.297 159.398 139.078L157.252 145.132L167.76 145.084C164.749 152.449 162.804 154.093 153.227 153.662L151.031 159.666L158.601 159.694C155.419 166.104 154.476 166.866 147.684 167.467C143.647 167.826 141.847 174.289 147.223 178.119L133.318 200.691L133.318 200.691Z" fill="#004ea2" fill-rule="evenodd" opacity="1" stroke="none"/>
<path d="M19.0894 177.225L14.0794 163.781L16.8169 162.829L39.7819 166.331L36.2681 156.902L39.0056 155.949L43.5919 168.261L40.8563 169.215L17.8913 165.718L21.825 176.273L19.0894 177.225Z" fill="#004ea2" fill-rule="evenodd" opacity="1" stroke="none"/>
<path d="M27.8344 195.559L26.4506 192.872L37.2525 187.316L33.8269 180.654L23.025 186.208L21.6413 183.525L44.7319 171.649L46.1156 174.336L36.39 179.334L39.8175 185.998L49.5431 180.996L50.9231 183.684L27.8344 195.559Z" fill="#004ea2" fill-rule="evenodd" opacity="1" stroke="none"/>
<path d="M38.7863 210.186L30.5831 198.729L52.2394 185.28L60.0431 196.178L57.6375 197.672L51.6825 189.356L44.9663 193.528L50.4375 201.167L48.0338 202.661L42.5625 195.021L34.8356 199.821L41.1919 208.695L38.7863 210.186Z" fill="#004ea2" fill-rule="evenodd" opacity="1" stroke="none"/>
<path d="M57.1894 228.193L54.4406 225.874L70.38 206.291L73.1306 208.613L57.1894 228.193Z" fill="#004ea2" fill-rule="evenodd" opacity="1" stroke="none"/>
<path d="M69.5344 236.82L72.8006 229.877L68.8425 227.01L62.9494 232.747L60.2588 230.668L78.9431 212.205L82.6913 214.491L72.7388 238.624L69.5344 236.82L69.5344 236.82ZM74.3081 226.481L78.2044 217.534L77.8444 217.239L71.1075 224.093L74.3081 226.481L74.3081 226.481Z" fill="#004ea2" fill-rule="evenodd" opacity="1" stroke="none"/>
<path d="M88.2638 245.872L84.8888 244.303L86.8575 226.286L79.4775 241.432L76.11 239.884L87.8213 216.692L90.8625 218.102L89.4488 235.219L97.0613 221.085L99.8944 222.263L88.2638 245.872Z" fill="#004ea2" fill-rule="evenodd" opacity="1" stroke="none"/>
<path d="M105.701 251.074L103.524 250.363L103.725 248.323C103.217 248.76 102.54 249.039 101.7 249.165C100.858 249.294 100.016 249.218 99.1613 248.94C97.3613 248.355 96.0319 246.943 95.1731 244.704C94.3106 242.466 94.4813 239.385 95.6888 235.463C97.0106 231.18 98.6344 228.197 100.566 226.517C102.493 224.843 105.426 223.907 108.019 224.738C110.811 225.628 112.622 229.061 111.819 233.813L108.486 233.539C109.061 231.504 108.769 228.33 106.781 227.683C105.171 227.16 103.365 227.655 102.217 228.938C101.068 230.222 99.9506 232.639 98.8537 236.198C97.815 239.571 97.5262 242.033 97.9856 243.589C98.445 245.145 99.2362 246.103 100.344 246.465C101.456 246.827 102.465 246.681 103.374 246.021C104.28 245.366 105.019 244.121 105.579 242.303L106.044 240.797L102.069 239.501L102.87 236.904L109.41 239.038L105.701 251.074L105.701 251.074Z" fill="#004ea2" fill-rule="evenodd" opacity="1" stroke="none"/>
<path d="M140.244 245.353C140.169 247.691 139.543 249.523 138.373 250.847C137.201 252.171 135.394 252.782 132.954 252.69C130.517 252.598 128.753 251.852 127.671 250.444C126.589 249.034 126.081 247.161 126.158 244.823L126.729 227.132L129.846 227.248L129.274 244.939C129.219 246.596 129.544 247.828 130.241 248.634C130.939 249.443 131.874 249.87 133.046 249.917C134.22 249.958 135.18 249.602 135.928 248.85C136.674 248.098 137.078 246.896 137.132 245.237L137.706 227.546L140.82 227.663L140.244 245.353L140.244 245.353Z" fill="#004ea2" fill-rule="evenodd" opacity="1" stroke="none"/>
<path d="M157.971 250.076L155.192 250.496L146.432 233.614L147.771 251.739L144.469 252.212L142.53 226.796L146.331 226.444L153.555 238.286L152.214 225.54L154.973 225.067L157.971 250.076Z" fill="#004ea2" fill-rule="evenodd" opacity="1" stroke="none"/>
<path d="M167.464 247.414L164.205 248.402L157.431 224.346L160.689 223.358L167.464 247.414Z" fill="#004ea2" fill-rule="evenodd" opacity="1" stroke="none"/>
<path d="M176.254 216.928L180.373 243.488L177.159 245.072L163.091 222.529L166.187 221.226L175.965 236.597L173.254 218.233L176.254 216.928Z" fill="#004ea2" fill-rule="evenodd" opacity="1" stroke="none"/>
<path d="M202.382 231.983L190.509 238.401L177.583 216.204L188.874 210.103L190.311 212.567L181.695 217.222L185.704 224.106L193.618 219.829L195.054 222.292L187.136 226.571L191.749 234.489L200.948 229.519L202.382 231.983Z" fill="#004ea2" fill-rule="evenodd" opacity="1" stroke="none"/>
<path d="M215.908 222.499L213.296 224.73L204.096 217.108L201.716 219.263L207.934 227.719L205.324 230.453L190.095 209.074L194.949 205.597C196.502 204.484 198.542 203.689 200.379 203.908C205.121 204.473 207.148 207.667 206.931 211.382C206.863 212.554 206.796 213.696 206.336 214.858L215.908 222.499L215.908 222.499ZM199.498 207.439C197.565 206.912 196.043 208.406 194.651 209.494L199.712 216.176C201.259 215.062 201.979 214.821 203.149 212.803C203.655 210.377 202.571 208.279 199.498 207.439L199.498 207.439Z" fill="#004ea2" fill-rule="evenodd" opacity="1" stroke="none"/>
<path d="M224.123 201.857C229.431 205.046 228.193 214.095 221.216 215.153C219.339 215.436 217.132 214.869 216.184 214.269L217.376 211.562C218.526 211.819 219.69 212.233 220.792 212.025C225.313 211.164 225.114 206.468 222.478 204.521C221.559 203.843 220.245 203.756 219.157 203.876C216.107 204.218 214.153 206.494 210.759 206.706C207.049 206.94 204.465 204.677 203.859 201.066C203.539 199.151 203.996 197.295 204.947 195.804C206.91 192.731 211.076 192.315 214.112 194.106L212.931 196.898C211.29 196.026 208.376 196.029 207.279 197.745C206.708 198.643 206.509 199.562 206.681 200.498C207.062 202.536 208.455 203.719 210.418 203.483C213.713 203.081 215.94 200.372 219.182 200.477C220.727 200.529 222.559 200.918 224.123 201.857L224.123 201.857Z" fill="#004ea2" fill-rule="evenodd" opacity="1" stroke="none"/>
<path d="M235.32 198.559L233.408 200.904L211.521 187.181L213.433 184.836L235.32 198.559Z" fill="#004ea2" fill-rule="evenodd" opacity="1" stroke="none"/>
<path d="M224.273 170.874L221.85 175.363L242.522 187.519L241.129 190.101L220.459 177.943L218.036 182.432L215.454 180.913L221.691 169.356L224.273 170.874Z" fill="#004ea2" fill-rule="evenodd" opacity="1" stroke="none"/>
<path d="M228.064 153.799L240.671 165.067L249.09 168.671L248.064 171.51L240.264 168.491L222.308 168.075L223.17 165.199L235.701 165.401L226.828 157.238L228.064 153.799Z" fill="#004ea2" fill-rule="evenodd" opacity="1" stroke="none"/>
<path d="M55.2581 216.885C53.0288 219.105 50.9456 220.252 49.0144 220.316C47.0831 220.382 45.3356 219.615 43.7625 218.012C42.33 216.555 41.6213 214.856 41.6381 212.914C41.6456 211.929 41.9325 210.917 42.4931 209.876L45.3319 211.611C45.09 212.104 44.9625 212.572 44.9513 213.021C44.9231 214.078 45.2494 214.959 45.93 215.655C46.8881 216.63 47.8931 217.069 48.945 216.981C49.9988 216.892 51.2794 216.099 52.7925 214.596L65.4131 202.101L67.7681 204.499L55.2581 216.885L55.2581 216.885Z" fill="#004ea2" fill-rule="evenodd" opacity="1" stroke="none"/>
<path d="M98.2013 212.509L89.3531 207.019L90.1556 205.629L93.4406 207.671L98.7038 198.51L95.415 196.468L96.1313 195.225C97.3763 195.996 98.3663 196.434 99.1088 196.528C99.8456 196.622 100.468 196.331 100.971 195.636L102.857 196.802L95.7881 209.119L99 211.11L98.2013 212.509L98.2013 212.509ZM124.586 206.916C124.727 206.212 124.483 205.577 123.851 205.001C123.212 204.435 122.248 204.058 120.953 203.878C119.764 203.715 118.757 203.792 117.915 204.109C117.069 204.418 116.576 204.932 116.43 205.652C116.323 206.175 116.43 206.638 116.743 207.051C117.053 207.463 117.566 207.866 118.279 208.26C118.596 208.423 119.072 208.665 119.724 208.972C120.371 209.272 120.964 209.531 121.509 209.726C122.552 209.392 123.289 208.989 123.731 208.552C124.17 208.099 124.457 207.551 124.586 206.916L124.586 206.916ZM123.437 214.841C123.57 214.189 123.476 213.658 123.167 213.221C122.846 212.784 122.171 212.295 121.131 211.746C120.787 211.566 120.324 211.352 119.745 211.112C119.162 210.87 118.506 210.589 117.776 210.272C116.799 210.538 116.01 210.915 115.418 211.412C114.821 211.909 114.452 212.527 114.308 213.247C114.114 214.2 114.401 215.031 115.161 215.779C115.92 216.517 116.97 216.99 118.309 217.168C119.678 217.365 120.827 217.245 121.757 216.832C122.694 216.412 123.253 215.751 123.437 214.841L123.437 214.841ZM117.953 218.736C116.747 218.563 115.671 218.299 114.728 217.929C113.784 217.56 113.012 217.114 112.403 216.574C111.806 216.06 111.39 215.492 111.154 214.858C110.918 214.232 110.867 213.596 110.994 212.944C111.171 212.094 111.677 211.365 112.526 210.748C113.37 210.131 114.503 209.709 115.926 209.469L115.939 209.409C114.833 208.792 114.049 208.183 113.576 207.566C113.113 206.949 112.959 206.244 113.123 205.447C113.363 204.255 114.255 203.372 115.791 202.779C117.334 202.179 119.166 202.033 121.284 202.326C123.499 202.633 125.192 203.252 126.368 204.195C127.547 205.121 128.018 206.177 127.783 207.334C127.641 208.039 127.183 208.691 126.407 209.289C125.625 209.889 124.601 210.302 123.323 210.516L123.313 210.585C124.639 211.211 125.608 211.879 126.212 212.591C126.821 213.304 127.022 214.144 126.825 215.096C126.551 216.442 125.573 217.464 123.879 218.158C122.188 218.856 120.212 219.054 117.953 218.736L117.953 218.736ZM148.56 209.034C148.56 207.954 148.41 207.069 148.116 206.392C147.816 205.716 147.403 205.191 146.876 204.823C146.413 204.478 145.937 204.238 145.457 204.111C144.975 203.991 144.448 203.921 143.869 203.921C142.556 203.921 141.51 204.238 140.734 204.864C139.948 205.491 139.562 206.391 139.562 207.583C139.562 208.26 139.686 208.8 139.944 209.239C140.201 209.676 140.616 210.054 141.201 210.364C141.6 210.577 142.063 210.731 142.573 210.81C143.081 210.887 143.634 210.922 144.219 210.922C144.9 210.922 145.644 210.836 146.428 210.681C147.223 210.517 147.908 210.304 148.496 210.047C148.509 209.934 148.528 209.797 148.539 209.617C148.556 209.447 148.56 209.257 148.56 209.034L148.56 209.034ZM136.313 207.671C136.313 206.848 136.513 206.102 136.907 205.432C137.312 204.748 137.856 204.163 138.555 203.674C139.211 203.201 140.021 202.843 140.983 202.575C141.939 202.309 142.903 202.181 143.891 202.181C144.988 202.181 145.984 202.301 146.873 202.549C147.765 202.791 148.536 203.149 149.186 203.612C150.009 204.197 150.645 204.96 151.101 205.903C151.551 206.856 151.781 208.048 151.781 209.497C151.781 210.81 151.56 212.062 151.114 213.236C150.673 214.421 150.024 215.398 149.158 216.169C148.241 216.992 147.139 217.627 145.851 218.057C144.561 218.494 142.973 218.709 141.081 218.709C140.657 218.709 140.201 218.7 139.721 218.668C139.241 218.632 138.791 218.572 138.373 218.486L138.373 216.444L138.536 216.444C138.804 216.549 139.219 216.651 139.789 216.737C140.351 216.831 140.929 216.874 141.514 216.874C143.606 216.874 145.253 216.418 146.447 215.501C147.643 214.575 148.32 213.262 148.479 211.556C147.626 211.942 146.814 212.226 146.042 212.406C145.262 212.586 144.422 212.672 143.516 212.672C142.628 212.672 141.827 212.604 141.098 212.475C140.372 212.347 139.639 212.098 138.906 211.731C138.047 211.294 137.404 210.744 136.967 210.082C136.53 209.411 136.313 208.614 136.313 207.671L136.313 207.671ZM171 194.076L170.417 210.476L167.903 212.064L168.126 196.556L158.544 201.204L157.701 199.361L169.748 193.108L171 194.076L171 194.076Z" fill="#004ea2" fill-rule="evenodd" opacity="1" stroke="none"/>
<path d="M183.047 68.6475C181.277 67.4587 182.672 67.3069 183.028 65.5275C183.334 63.9994 182.599 62.0812 183.06 61.0387C184.307 58.2281 187.898 59.8669 189.75 61.6612C190.08 61.98 190.307 62.7656 190.479 63.5175C190.907 65.3887 191.256 67.995 189.034 68.9794C187.118 69.8306 184.586 69.6825 183.047 68.6475L183.047 68.6475Z" fill="#004ea2" fill-rule="evenodd" opacity="1" stroke="none"/>
<path d="M162.191 56.8762C162.139 56.8256 162.084 56.7731 162.032 56.7225C162.133 56.5125 162.233 56.3006 162.324 56.1225C163.02 56.1337 169.665 54.7931 169.712 54.6469C171.737 54.0412 173.655 53.2275 174.879 51.4331C170.606 51.1575 165.93 52.485 161.901 51.2138C160.264 50.04 159.416 48.5606 158.364 47.5031C158.396 47.4094 158.413 47.3456 158.434 47.2838C156.908 45.1069 157.41 43.2919 159.99 43.4475C163.579 45.8963 170.732 45.4894 175.003 45.5569C175.982 45.5194 178.719 45.6225 179.672 45.1275C182.619 40.2788 184.131 34.8375 186.422 29.9888C189.128 26.8988 190.588 30.4556 191.897 32.9269C192.064 33.2419 192.309 33.8194 192.488 34.6725C192.551 34.6931 193.044 37.4081 191.021 38.2238C189.06 40.2713 187.504 42.7913 186.497 45.6563C189.356 46.35 191.938 44.64 195.09 45.8419C195.264 47.5931 194.678 48.7913 192.808 49.4494C190.088 49.6294 187.219 49.6219 184.163 49.7662C182.509 52.1494 180.182 54.9469 177.484 56.3438C177.09 56.5481 175.256 57.2569 174.859 57.3169C172.791 57.6225 170.809 58.2094 168.763 57.9862C163.121 57.3712 163.153 57.1106 162.191 56.8762L162.191 56.8762Z" fill="#004ea2" fill-rule="evenodd" opacity="1" stroke="none"/>
<path d="M95.6775 66.0581C93.3506 65.64 90.8119 63.6281 89.2838 62.3588C89.3269 61.7531 89.3719 61.1475 89.4581 60.5644C93.39 55.6219 97.3444 50.9513 100.631 45.4219C101.434 43.005 102.623 40.3894 103.53 37.9706C103.583 37.92 103.708 37.6688 103.688 37.6069C104.685 36.3056 105.144 35.9119 106.622 37.2319C107.055 38.5481 104.903 40.5788 104.599 42.0656C104.07 44.6719 102.675 51.2363 101.704 53.7338C101.083 55.3275 98.43 64.1794 96.8175 65.6138C96.4088 65.7469 96.0413 65.9025 95.6775 66.0581L95.6775 66.0581Z" fill="#004ea2" fill-rule="evenodd" opacity="1" stroke="none"/>
<path d="M120.068 41.3531C117.019 42.0112 115.658 40.3031 113.554 38.9794C113.295 38.1956 113.653 37.5919 113.571 37.0275C114.281 36.6562 116.363 35.6925 117.711 35.25C119.342 34.4006 122.989 30.1762 124.823 31.1025C126.009 34.71 122.987 39.4556 120.068 41.3531L120.068 41.3531Z" fill="#004ea2" fill-rule="evenodd" opacity="1" stroke="none"/>
<path d="M95.385 41.625C93.9675 40.9087 92.5256 36.3131 92.0494 34.8694C92.2275 32.0306 94.8188 31.2469 97.4438 32.3644C99.7856 34.2 101.213 34.8413 100.093 37.9894C98.4994 40.3219 97.6106 40.6838 95.385 41.625L95.385 41.625Z" fill="#004ea2" fill-rule="evenodd" opacity="1" stroke="none"/>
<path d="M117.144 33.5269C116.46 32.1881 117.623 28.6444 116.873 28.0575C116.171 28.3575 115.493 28.8244 114.739 29.0719C112.695 28.6669 110.124 26.9775 110.402 25.0781C111.349 23.2031 110.929 23.7225 112.999 23.0438C114.758 21.63 116.526 20.25 118.328 18.8588C121.547 17.3456 123.587 18.795 124.659 22.0556C124.62 24.36 123.63 26.4244 122.672 28.4775C121.133 29.9231 119.79 31.44 118.438 32.9269C117.981 33.1125 117.563 33.3188 117.144 33.5269L117.144 33.5269Z" fill="#004ea2" fill-rule="evenodd" opacity="1" stroke="none"/>
<path d="M96.1219 28.77C95.2463 28.3294 95.4581 27.9131 95.6681 27.1819C95.2144 25.8038 94.08 24.8906 93.6469 23.5725C93.4575 20.9944 92.7525 20.22 94.4813 18.5044C96.2438 18.7931 102.501 20.175 101.996 23.6063C100.986 25.9181 98.2444 27.9319 96.1219 28.77L96.1219 28.77Z" fill="#004ea2" fill-rule="evenodd" opacity="1" stroke="none"/>
<path d="M53.565 121.663C50.895 123.664 45.5775 122.391 44.7488 118.783C44.1638 116.235 40.9294 109.058 39.5475 105.184C38.8519 103.976 38.0438 103.046 38.4919 101.676C39.3881 101.411 40.4456 102.366 41.2463 103.103C41.6494 102.986 42.2738 101.985 42.225 101.306C42.0244 98.4806 41.9194 95.3888 41.4131 92.595C40.68 92.0081 39.9488 91.4194 39.2606 90.8194C38.7825 92.2519 37.1663 96.9338 35.4806 94.5113C35.8444 92.6025 35.9869 89.4488 34.8563 87.5925C33.4313 86.1394 31.4269 85.1963 30.7594 83.5913C30.945 81.3244 34.3931 80.6494 36.4631 81.4763C38.115 81.5494 37.9575 78.4575 40.0238 83.4938C40.0969 84.3225 40.9219 84.81 41.8519 85.2431C41.9906 85.0556 42.1313 84.8681 42.2719 84.6806C42.1425 82.5056 42.0056 80.1375 42.1031 77.8238C39.9881 75.8419 38.2144 74.1975 36.9131 71.76C36.8213 69.3788 39.4725 67.8938 41.7919 67.0913C42.5025 65.7881 42.4688 64.6781 42.3506 63.0356C42.4875 62.5088 42.4875 62.5088 43.02 61.6706C43.8319 61.6988 44.5163 61.9594 45.4425 62.4656C47.3963 64.8094 43.7756 72.3469 47.4825 72.7875C48.1781 71.5125 47.1 70.2488 46.4869 69.2363C46.6256 67.3969 49.3706 64.9819 51.3319 64.2094C54.285 63.8288 54.1669 65.4938 54.2813 68.0363C54.4331 68.3831 54.5813 68.7263 54.7481 69.0431C58.5994 71.6325 58.5994 71.6325 63.945 74.925C65.6063 76.3556 65.7863 78.7256 65.955 79.4419C66.0619 79.8956 66.8363 83.2688 65.0981 83.5613C60.72 80.835 56.355 77.7413 52.1025 75.27C52.0556 75.3563 52.0369 75.4594 52.0331 75.5325C53.9531 77.1825 56.6081 81.825 56.7788 84.4763C55.83 86.2144 53.9719 87.0056 52.2431 86.5894C51.9188 86.1488 52.0219 85.755 51.9375 85.2206C50.5969 83.0606 46.8563 81.0956 44.9494 79.905C44.2913 81.3881 45.9263 85.6256 46.44 87.3713C46.5506 88.41 46.6613 89.445 46.7869 90.4556C48.1069 91.9669 49.4606 93.3431 50.9269 94.8581C51.4725 95.7188 52.0463 96.5963 52.62 97.4738C52.5731 97.5619 52.5413 97.6181 52.5094 97.6763C53.1863 98.985 54.7031 102.819 52.1588 102.938C51.8981 102.795 51.6656 102.668 51.45 102.512C50.5763 100.53 48.9525 98.4075 47.235 97.2806C46.7344 99.3019 47.5238 101.445 46.6125 103.106C46.0556 104.124 44.9606 104.634 44.1825 104.959C43.3575 105.304 42.8344 105.482 42.78 105.789C43.53 106.688 44.3888 107.537 45.105 108.486C47.955 112.26 50.3756 115.984 53.6288 119.601C53.8688 120.624 53.8294 120.904 53.565 121.663L53.565 121.663Z" fill="#004ea2" fill-rule="evenodd" opacity="1" stroke="none"/>
<path d="M34.8619 105.296C33.7819 105.345 33.1931 104.085 32.3419 103.508C29.355 102.78 27.1144 102.272 26.0194 99.3844C26.1337 99.1069 26.2744 98.8463 26.4169 98.5856C27.9319 97.9444 30.7837 97.47 32.7094 97.3181C36.4069 97.9819 35.34 102.624 34.8619 105.296L34.8619 105.296Z" fill="#004ea2" fill-rule="evenodd" opacity="1" stroke="none"/>
<path d="M26.8013 96.915C26.1919 97.41 26.0625 97.3013 25.7681 97.29C25.35 96.6113 25.1756 96.1031 24.4913 95.8425C21.225 95.9025 17.7488 93.5944 18.2231 90.2438C18.795 89.5406 19.4438 89.9325 20.7038 90.2438C23.43 89.5875 27.4631 87.7069 27.8138 92.115C27.5775 93.7313 27.1519 95.3775 26.8013 96.915L26.8013 96.915Z" fill="#004ea2" fill-rule="evenodd" opacity="1" stroke="none"/>
<path d="M213.287 88.7231C211.888 86.1075 215.543 83.1619 217.204 82.1569C219.602 82.6669 219.613 86.5275 218.012 88.3688C215.756 89.9081 215.496 90.2062 213.287 88.7231L213.287 88.7231Z" fill="#004ea2" fill-rule="evenodd" opacity="1" stroke="none"/>
<path d="M209.121 114.793C209.087 114.679 209.081 114.587 209.055 114.517C206.314 112.136 204.094 109.463 202.59 106.361C202.686 106.05 202.686 106.05 202.965 105.726C205.11 106.277 206.826 108.381 209.274 107.974C210.542 107.019 211.607 106.198 212.445 105.133C209.73 102.773 206.58 103.226 203.824 101.968C201.983 100.367 200.441 95.7488 201.293 93.8644C203.499 91.6275 202.971 93.0919 205.509 95.3006C208.851 97.5938 213.308 98.7562 217.249 100.26C218.265 100.399 218.265 100.399 218.723 100.577C221.162 99.3319 221.916 99.42 224.222 100.941C225.347 101.306 225.347 101.306 228.868 102.139C229.138 101.979 229.406 101.82 229.701 101.683C225.966 98.7844 220.59 98.8331 216.156 97.9969C214.476 97.0613 213.69 95.8519 213.176 94.5319C212.511 94.0388 208.603 91.3425 211.521 91.605C212.895 92.1881 214.348 92.2256 215.861 92.7994C220.033 93.585 224.364 94.9894 228.608 96.0975C228.998 95.6494 229.063 95.2706 229.099 95.0794C229.669 94.5244 230.053 94.335 230.64 94.0594C229.963 93.7331 229.856 93.5513 229.386 93.8438C227.079 92.9756 224.959 93.7556 225.131 90.8888C223.38 91.9463 221.415 91.9444 219.921 90.645C219.21 88.4963 221.543 86.0644 222.383 84.6938C222.413 84.4594 223.129 83.3306 223.798 81.8588C224.456 79.8937 224.715 77.2313 226.697 76.8131C228.338 77.19 228.983 77.355 228.482 79.59C228.668 80.8856 228.846 83.3606 228.611 84.4725C228.234 86.2613 227.582 88.8206 225.928 90.27C227.119 90.5606 229.05 90.7538 229.436 89.2537C228.859 87.3506 230.7 86.895 231.992 87.3206C232.575 87.9581 232.575 87.9581 233.441 88.6706C233.723 88.3462 233.698 88.3237 233.721 87.9956C233.04 86.6175 233.481 86.5613 234.587 85.995C233.818 84.3637 234.611 82.6481 235.959 82.2037C240.326 84.7763 240.326 84.7763 242.484 85.8637C244.92 85.5787 249.771 83.0156 251.203 85.7944C251.092 87.2288 250.256 88.995 248.843 90.1688C248.021 90.4594 247.185 90.5662 246.473 91.0837C246.696 91.2787 246.9 91.4981 247.101 91.7175C249.279 92.4319 250.811 92.2294 249.525 95.2687C250.189 97.4194 250.89 97.7231 248.329 99.2587C245.269 100.314 241.978 101.434 238.792 102.382C238.68 102.459 238.569 102.538 238.483 102.637C238.691 102.951 238.901 103.264 239.089 103.601C238.322 104.685 237.21 105.862 236.072 106.971C233.904 107.402 232.798 106.311 231.218 105.112C228.559 104.244 226.232 103.401 223.566 102.744C223.238 103.073 222.859 103.356 222.596 103.957C223.472 104.764 224.351 105.613 225.229 106.464C225.572 108.032 223.77 109.703 222.163 110.141C221.051 109.307 220.341 108.864 219.195 108.525C218.638 108.913 218.079 109.303 217.502 109.719C215.754 111.641 212.297 117.075 209.121 114.793L209.121 114.793ZM237.161 97.2788C237.129 97.1625 237.101 97.095 237.073 97.0275C238.594 95.6813 239.048 95.1581 237.474 94.0519C237.038 94.1531 236.209 94.3519 236.192 93.8137C236.173 93.2344 238.963 92.5913 239.389 92.3512C240.186 93.0431 241.354 94.365 241.449 95.7169C240.345 96.9844 238.89 97.2506 237.161 97.2788L237.161 97.2788Z" fill="#004ea2" fill-rule="evenodd" opacity="1" stroke="none"/>
</g>
</g>
</svg>
